<?xml version="1.0" encoding="UTF-8"?>
<svg id="Layer_2" data-name="Layer 2" xmlns="http://www.w3.org/2000/svg" viewBox="0 0 298.12 217.13">
  <defs>
    <style>
      .cls-1 {
        fill: #f7d694;
      }
    </style>
  </defs>
  <g id="Layer_1-2" data-name="Layer 1">
    <path class="cls-1" d="M298.12,0v162.5c-.39-.05-.78-.1-1.16-.15-2.92-.45-8.55-.73-14.31-.73-4.72,0-6.42.17-10.09.99-4.27.96-5.01,1.14-5.42,1.29-.24.09-1.06.33-1.8.53-.75.19-1.76.47-2.26.62-1.25.36-2.51.7-3.77,1.04-2.46.56-3.66.91-4.51,1.31-.58.27-1.26.51-1.51.53-.67.07-6.68,3.09-7.38,3.72-.33.3-.77.6-.97.66-.48.15-5.2,4.8-5.2,5.13,0,.14-.65.99-1.43,1.89-2.5,2.87-2.96,3.64-3.73,6.2-.52,1.7-.53,8.28-.01,8.8.19.19.35.99.35,1.78s.13,1.51.3,1.61c.17.11.3.76.3,1.46,0,1.39.82,3.89,1.77,5.4.6.95.81,1.38,2.36,4.74.42.91.88,1.89,1.03,2.18.48.94.28,1.42-.94,2.18-.96.61-1.58.76-3.16.76-1.08,0-2.21-.12-2.49-.28-2.07-1.08-3.39-1.28-7.53-1.09-4.38.19-6.01.48-8.21,1.45-2.03.9-2.47,1.06-3.46,1.27l-2.11.44c-.66.14-1.68.4-2.25.59-1.45.45-2.87.41-3.3-.1-.25-.3-.31-1.58-.19-4.44.1-2.21.18-4.83.19-5.82.03-3.05-.55-10-.9-10.65-.18-.33-.32-.94-.32-1.35s-.26-1.27-.58-1.9c-.31-.64-.93-1.91-1.38-2.82-.39-.81-.8-1.61-1.22-2.41-.54-.97-3.78-4.21-4.21-4.21-.19,0-.66-.34-1.05-.76-.39-.41-.86-.75-1.06-.75s-.59-.27-.89-.6-.73-.61-.95-.61-.64-.19-.93-.44c-1.26-1.04-2.8-2-5.11-3.17l-2.48-1.24-3.1.13c-1.7.08-4.32.37-5.81.65-1.49.28-3.52.57-4.51.65-1,.07-2.08.26-2.41.41-.33.16-1.49.34-2.56.41-3.56.25-7.65,1.44-8.88,2.6-.36.33-.79.61-.96.61s-.55.26-.84.58c-.71.79-2.78,1.28-6.04,1.44-1.49.07-2.84.25-3,.41-.15.15-.63.28-1.05.28-.42.01-1.37.22-2.11.47-1.61.57-4.35,1.32-5.56,1.53-1.16.21-3.37-.42-4.81-1.38-.58-.38-1.17-.75-1.76-1.12-.32-.19-1.11-.84-1.74-1.46-1.15-1.12-1.9-1.64-3.31-2.27-.57-.26-1.15-.52-1.72-.79-.78-.37-1.56-.43-3.77-.26-3.74.27-4.97.26-6.46-.04-1.7-.35-4.01-2.48-4.01-3.72,0-1.33-3.9-4.52-5.52-4.52-.34,0-1.03-.13-1.54-.28l-4.87-1.53c-2.17-.68-4.74-1.63-5.72-2.12-.98-.48-1.94-.88-2.15-.88s-.85-.28-1.44-.61-1.27-.6-1.51-.6-.69-.12-.97-.28c-.29-.15-1.88-.41-3.54-.58-1.66-.16-3.48-.38-4.06-.48-.58-.09-2.01-.32-3.17-.5-2.53-.39-4.19-.91-5.76-1.81-.64-.36-1.29-.72-1.94-1.06-.43-.22-1.03-.68-1.33-1.01-.3-.33-.7-.6-.88-.6-.19,0-1.82-1.49-3.64-3.32-1.82-1.82-3.44-3.31-3.61-3.31s-.8-.48-1.41-1.06c-.61-.57-1.23-1.05-1.37-1.05-.45,0-2.6-2.18-3.72-3.76-.58-.83-2-3.41-3.14-5.72-1.15-2.32-2.42-4.76-2.83-5.42-.42-.67-1.47-2.6-2.35-4.31-1.43-2.77-1.6-3.3-1.6-4.98,0-1.11-.15-2.04-.37-2.26-.53-.53-.52-8.62,0-9.14.52-.51.46-2.39-.08-3.17-.44-.62-2.37-2.06-3.82-2.83-.97-.52-3.83-1.15-5.25-1.16-3.53-.03-5.31-2.08-6.15-7.09-.37-2.19-.73-3.78-1.77-7.83-.5-1.99-.92-3.98-.92-4.43-.01-.44-.14-.89-.31-.99-.17-.11-.3-.45-.3-.76,0-.86-1-3.83-1.84-5.49-.17-.35-.26-.73-.27-1.11,0-.32-.14-.67-.3-.77-.17-.11-.3-.99-.3-1.96s.13-1.86.3-1.96c.17-.1.3-1.54.3-3.27,0-3.19-.49-4.95-1.64-5.9-.26-.22-.47-.54-.47-.71,0-.43-1.53-2.02-1.95-2.02s-4.07-3.67-4.07-4.1c0-.18-.27-.56-.59-.85-.32-.29-.67-.92-.77-1.4-.11-.48-.32-.95-.47-1.04-.16-.09-.28-.56-.28-1.04s-.14-.95-.3-1.05c-.17-.11-.3-.42-.31-.7,0-.54-1.57-3.79-2.2-4.56-.21-.26-.56-.87-.78-1.37-.2-.46-.42-.91-.65-1.35-.28-.5-.54-1-.79-1.51-.28-.58-.97-1.85-1.51-2.82-.54-.96-.99-1.95-.99-2.18s-.14-.42-.3-.42c-.17,0-.3-.4-.3-.89s-.12-.96-.27-1.05c-.15-.09-.34-.68-.43-1.3-.35-2.5-1.62-6.92-2.18-7.6-.26-.32-.41-2.36-.48-6.85-.08-4.53-.22-6.49-.49-6.76-.45-.45-.51-5.54-.07-5.82.51-.31,1.49.43,2.08,1.59.31.62.85,1.38,1.2,1.69.35.32.64.74.64.93s.34.67.75,1.06c.41.39.75.86.75,1.05,0,.39,1.56,1.96,1.95,1.96.14,0,.97.65,1.84,1.43,2.01,1.82,4.83,3.99,5.18,3.99.15,0,.58.34.97.76.39.41.86.75,1.05.75s.74.4,1.21.9c.48.5.99.91,1.13.91.15,0,.71.33,1.25.75.55.41,1.09.75,1.22.75s.82.4,1.53.88c1.78,1.2,2.77,1.63,6.62,2.85,7.4,2.34,10.04,2.88,15.36,3.11,4.12.17,9.47-.42,11.2-1.25.68-.32,1.36-.63,2.05-.93,1.2-.53,5.86-4.82,5.88-5.4.01-.17.62-.96,1.36-1.76.74-.8,1.34-1.55,1.34-1.66,0-.12.47-.75,1.05-1.41.58-.66,1.05-1.31,1.06-1.45,0-.13.41-.67.9-1.2.5-.53.91-1.11.91-1.29s.34-.64.75-1.03c.41-.39.75-.87.75-1.06s.27-.6.61-.9c.33-.3.6-.71.6-.91s.19-.53.42-.72c.23-.19.78-1.06,1.22-1.92.44-.86,1.06-1.97,1.38-2.47s1.06-1.85,1.65-3.01c.59-1.16,1.32-2.52,1.63-3.01.26-.43.53-.89.81-1.36h217.52Z"/>
  </g>
</svg>